<svg id="Layer_1" data-name="Layer 1" xmlns="http://www.w3.org/2000/svg" viewBox="0 0 878.38 881.73"><defs><style>.cls-1{fill:#fff;}</style></defs><title>logo</title><rect id="background" x="-0.33" width="878.7" height="881.73"/><path id="title" class="cls-1" d="M395.22,791.81V758.4h7.86v4.26a18.21,18.21,0,0,0,.25,4.25c.14,0,.54-.52.88-1.16a18.33,18.33,0,0,1,6.39-5.85,18.92,18.92,0,0,1,9.3-2.15c8.06,0,14.4,4.07,18,11.62a26.32,26.32,0,0,1,2.82,10.46,41.94,41.94,0,0,1-.87,12.8,31.24,31.24,0,0,1-4.78,9.59,19.18,19.18,0,0,1-15.32,7,18,18,0,0,1-8.89-2,23.75,23.75,0,0,1-6.59-5.87c-.5-.77-.53,0-.55,11.54l0,12.36h-8.51Zm28.92,8.74c3.86-1.91,6.27-5.18,7.66-10.38a35,35,0,0,0-.19-14c-1.37-4.85-4-8.26-7.9-10.16-1.63-.8-2.15-.89-5.57-.89s-3.95.08-5.58.85a14.93,14.93,0,0,0-6.79,7.18c-1.68,3.51-2.14,5.75-2.12,10.47,0,6.13,1.48,10.65,4.54,14,2.87,3.2,5.65,4.33,10.32,4.19,2.88-.08,3.35-.18,5.63-1.31Zm-295.91,9.27c-13-1.25-21.94-11.28-24.32-27.28a76.39,76.39,0,0,1,0-17.1c1.32-9.17,4-15.1,9.18-20.33a17.91,17.91,0,0,1,6.06-4.51c4.68-2.29,6.44-2.66,12.61-2.65,5.05,0,5.35,0,8.33,1.07a23.12,23.12,0,0,1,9.31,5.6q10,9.6,10,29c0,9.35-1.47,16.14-4.92,22.76-5,9.56-14.73,14.57-26.25,13.47Zm7.08-12.06c3.45-1.16,6.52-5.36,8-11,2-7.5,1.92-19.69-.18-26.78-1.35-4.52-4.32-8.46-7.43-9.84a11.4,11.4,0,0,0-8.79.12c-4.25,2.08-7.06,6.9-8.26,14.18-1.62,9.77-.53,21.06,2.6,27s8.08,8.26,14,6.26Zm159.85,11.39a21.75,21.75,0,0,1-8.36-2.34,19.8,19.8,0,0,1-8.56-8.29c-4.17-8-4.55-19.74-.89-27.95a21.07,21.07,0,0,1,13.8-12.07c2.68-.77,3.3-.82,7.24-.67,6.49.25,10.35,1.87,14.25,6,4.36,4.6,6.59,11.15,6.59,19.4v2.38l-17.93.08-17.93.09.08,2.13a14.84,14.84,0,0,0,4.55,10.5,13.19,13.19,0,0,0,7.57,3.59c5.92.92,12.06-1.72,14.17-6.1l.7-1.44h8.1l-.51,1.72a15.47,15.47,0,0,1-4.22,7,20.68,20.68,0,0,1-12.32,5.9l-3.06.3a20.85,20.85,0,0,1-3.27-.15Zm15.28-31.59a15.65,15.65,0,0,0-4.57-9.7,13.74,13.74,0,0,0-10.57-2.93c-5.93,1-10.39,5.47-11.57,11.71a8.66,8.66,0,0,0-.27,2.55c.1.1,6.24.14,13.64.09l13.45-.08Zm32.25,31.57c-8.69-.9-14.72-5.58-16.38-12.69l-.47-2h8.3l.56,1.57c1.32,3.71,3.86,5.65,8.31,6.34,8,1.25,14.27-2.27,13.82-7.72-.33-4-2.31-5.24-12-7.71-9.1-2.31-11.83-3.55-14.65-6.62-3.36-3.67-3.8-10.5-1-15,3.09-4.89,9-7.56,16.64-7.56,6.13,0,10.26,1.53,13.92,5.13a14,14,0,0,1,4.19,7.89l.23,1.72h-7.86l-.42-1.49c-.92-3.29-3.76-5.63-7.76-6.38-7-1.33-13.52,2.76-12.72,8.06.29,1.94,2.15,4,4.47,5,.91.39,4.75,1.51,8.53,2.49,7.79,2,11,3.35,13.33,5.53,2.64,2.47,3.85,6.43,3.27,10.68-1.14,8.33-10.93,13.91-22.34,12.72Zm125.33,0c-9.81-1-16.61-6.86-19.48-16.84-.67-2.32-.75-3.33-.75-8.84s.08-6.53.75-8.85c3.14-10.92,10.9-16.87,22-16.87,9.21,0,16.44,4.25,20.09,11.82a26.89,26.89,0,0,1,2.86,10.54,39.06,39.06,0,0,1-.86,12.15c-1.62,6.39-6,12-11.29,14.57A25.27,25.27,0,0,1,468,809.14Zm8.48-8.39a12.86,12.86,0,0,0,6.27-5.92c1.88-3.6,2.33-5.77,2.33-11.37s-.44-7.77-2.35-11.41a13.82,13.82,0,0,0-6.62-6.17,16.42,16.42,0,0,0-4.61-.85c-5.12-.28-9,1.35-11.72,4.94s-3.8,7.1-3.8,13.49c0,6.87,1.35,11,4.73,14.55,2.79,2.9,5.66,4,10.31,3.86,2.89-.08,3.53-.21,5.46-1.12Zm42.25,8.39c-9.35-1.22-16.08-8.38-17.94-19.07-.74-4.25-.48-12.5.51-16a23.16,23.16,0,0,1,6.07-10.66c4.05-4.07,8.1-5.72,14-5.72,6.6,0,11.41,2.49,15.53,8l.72,1V752.91l0-13.84h8.19v69.44H538l-.09-4.34-.09-4.34-1,1.48a18.36,18.36,0,0,1-18.08,7.83Zm10-8.3a15.34,15.34,0,0,0,6.44-6.33c1.68-3.31,2.3-6.36,2.28-11.22,0-3.7-.15-4.85-.83-7.09-1.46-4.87-4.31-8.46-8.12-10.22a15,15,0,0,0-9.72-.42c-6.36,2-9.95,8.32-10,17.73,0,4.44.32,6.53,1.63,9.83,2.41,6,6.79,8.93,13.2,8.74a10.81,10.81,0,0,0,5.14-1Zm46.9,8.31c-5.77-.66-9.71-2.48-13.45-6.24a16.3,16.3,0,0,1-4-5.58,25.62,25.62,0,0,1-2.81-10.44A32.62,32.62,0,0,1,558.05,770c3.83-8,10.83-12.27,19.88-12.25,5.79,0,10.14,1.33,14,4.28a20.35,20.35,0,0,1,6.49,9.71c.94,3.12,1,3-3.46,3-3.46,0-4-.07-4.14-.58-1.44-4.27-4.28-7.39-7.75-8.53-3.93-1.29-9-.83-12,1.1s-5.55,5.71-6.72,10c-.92,3.33-.84,10.46.17,14a15.38,15.38,0,0,0,7.87,10c2,1,2.37,1,5.92,1,4.43,0,6.53-.67,8.93-2.78a16.31,16.31,0,0,0,3.65-6c.15-.51.65-.58,4.28-.58h4.11l-.2.9a19,19,0,0,1-6,10.57c-4.31,3.9-11.13,5.94-17.48,5.22Zm43.49-.06c-9.13-1-14.64-7.82-13.58-16.94.64-5.5,4.88-9.71,11.56-11.46,2-.52,4.79-.82,11.3-1.2,4.77-.28,8.88-.57,9.13-.65.71-.23.31-6.47-.53-8.35-1.57-3.48-4.52-5.23-9.26-5.46-6.27-.32-10.59,2-12.14,6.39l-.37,1.06h-8.08l.19-1.23a15.65,15.65,0,0,1,5.42-9.2,23.19,23.19,0,0,1,8.37-3.85c3.1-.69,10.39-.48,13.16.37,4.56,1.41,8.25,4.24,10,7.67s1.8,4.54,1.81,24.18v18.09h-7.86v-4.34c0-4.87.23-4.73-2.27-1.37a17.62,17.62,0,0,1-8.27,5.49,18.11,18.11,0,0,1-8.55.8Zm8.39-7.29a13.51,13.51,0,0,0,9.16-7.3c.82-1.74,1-2.59,1.14-5.44a11.34,11.34,0,0,0-.12-3.54c-.45-.24-14.15.67-16.22,1.08a11.59,11.59,0,0,0-6.23,3.26,8.24,8.24,0,0,0-1.28,6.47,8.93,8.93,0,0,0,3.77,4.56A14.58,14.58,0,0,0,627.53,801.8Zm44.28,7.35a21.38,21.38,0,0,1-10.35-3.67c-3.55-2.55-5.26-5.3-6.33-10.15l-.2-.9h8.4l.38,1.43c1.22,4.55,6.36,7.16,13.08,6.66,4.66-.35,8.64-3.09,9.12-6.25a5.54,5.54,0,0,0-1.31-5c-1.5-1.75-3.34-2.49-10.87-4.38-8.65-2.18-11.36-3.36-14-6.1-3.48-3.58-4.29-9.35-2-14.33,1.72-3.75,6.49-7.13,11.58-8.21a33.79,33.79,0,0,1,11.22,0c6.13,1.45,10.9,5.76,12.28,11.11.86,3.31,1.07,3.12-3.41,3.12h-3.92l-.33-1.23c-1-3.56-3.82-5.94-8-6.64-8.65-1.46-15.51,4.77-11.55,10.48,1.37,2,3.79,3,11.72,5.06a83.17,83.17,0,0,1,9.17,2.77c5.78,2.66,8,6.17,7.72,12.16a11.83,11.83,0,0,1-3.71,8.49,19.43,19.43,0,0,1-11.8,5.42,24.22,24.22,0,0,1-6.87.16Zm44.06-.52c-4.4-.67-7.16-2.66-8.56-6.18l-.78-2-.09-17.61-.1-17.6h-7.5V758.4h7.53V746.28h8.19V758.4h9.82v6.88h-9.85l.1,16.29c.1,18.08,0,17.52,2.3,19.14.9.64,1.55.78,4.26.87l3.19.11v6.73l-1.52.21a38,38,0,0,1-7,0Zm-525-34.84V739.07H199v69.44h-8.19Zm20.31,9.67V758.4h8.51v50.11h-8.51Zm20.63-9.67V739.07H240v41.76l11.22-11.21,11.22-11.22h9.82l-10.79,10.79c-8.25,8.25-10.7,10.88-10.44,11.21l20.37,25.9,1.74,2.21h-9.72l-9.3-11.64-9.29-11.65-.86.75c-.47.42-1.56,1.41-2.42,2.22L240,789.65v18.86h-8.19V773.79Zm-17.53-24.55a5,5,0,0,1-3.37-2.59,5,5,0,0,1,4.52-7.58,4.72,4.72,0,0,1,4.51,2.64,4.61,4.61,0,0,1,.06,4.78,5.1,5.1,0,0,1-5.72,2.75Z"/><path id="comment" class="cls-1" d="M378.38,577.85c0-35.29,20-64,49.65-74.22a72.91,72.91,0,0,1,89.27,36.44c11.06,22.12,10.92,44.43.62,66.87-1,2.17-.81,5.28-.18,7.69,2,7.87,4.44,15.67,7,23.41,1.11,3.39,1.12,6.75-1.82,8.52a11.12,11.12,0,0,1-7.81.79c-8.34-2.23-16.42-5.51-24.83-7.34-3.1-.68-7,1.14-10.26,2.53-35.33,15.22-75-.95-92.2-32.68C381.69,598.65,378.66,586.75,378.38,577.85Zm9.55-3.82c-.3,9.38,2.09,18.42,6.13,27.17a64.14,64.14,0,0,0,89,29.68c2.24-1.21,5.64-1.14,8.26-.55,5.81,1.3,11.44,3.42,17.21,5,1.39.38,3.84.34,4.37-.45.7-1.07.3-3.14-.14-4.63-1.63-5.58-3.85-11-5.07-16.67a14.91,14.91,0,0,1,.86-9c8.89-18,10.19-36.1,2.69-54.92-11.61-29.13-45.13-47.38-77.15-37.75C408.19,519.62,387.33,545.68,387.93,574Z"/><path id="heart" class="cls-1" d="M258.79,550.06c.22,14.59-5.21,26.63-14.72,35.73-19.22,18.38-39.5,35.64-59.39,53.32-3.51,3.11-7.27,3-10.82-.05-13.11-11.28-26.5-22.27-39.2-34-9.23-8.54-18.53-17.34-26.06-27.34-17.23-22.87-8.54-57.88,17.21-70.59,17.16-8.47,35.69-5.37,49.73,9.34,3.21,3.37,4.62,3,7.62-.13,20.59-21.86,55.61-16.64,69.39,10.14C256.49,534.14,259,542.12,258.79,550.06Zm-79.58-11c-2-3.2-3.32-5.45-4.7-7.69-6-9.67-13.41-17.38-25.46-18.89-22-2.75-37.56,15.68-39.42,33.76a39,39,0,0,0,12,33.1c17.85,17.16,36.66,33.34,55,50,2.13,1.93,3.65,1.41,5.57-.28,5.62-4.94,11.49-9.61,17-14.63,12.58-11.39,25.66-22.31,37.35-34.54,15-15.69,16.57-34.81,5.92-51.6-13.16-20.76-41.23-21.56-55.17-1.54C184.74,530.52,182.3,534.41,179.21,539.1Z"/></svg>