<svg id="Layer_1" data-name="Layer 1" xmlns="http://www.w3.org/2000/svg" viewBox="0 0 1135 1135"><defs><style>.cls-1{fill:#fff;}</style></defs><title>logo-background</title><rect id="background" x="128.15" y="126.64" width="878.7" height="881.73"/><path id="title" class="cls-1" d="M523.69,918.44V885h7.86v4.25a17.92,17.92,0,0,0,.26,4.26c.13,0,.53-.52.88-1.16a18.2,18.2,0,0,1,6.38-5.85,18.92,18.92,0,0,1,9.3-2.15c8.06,0,14.4,4.07,18,11.62a26.23,26.23,0,0,1,2.81,10.46,41.54,41.54,0,0,1-.86,12.79,31.31,31.31,0,0,1-4.79,9.6,19.2,19.2,0,0,1-15.31,7,17.8,17.8,0,0,1-8.89-2,23.43,23.43,0,0,1-6.59-5.87c-.5-.76-.54,0-.56,11.55v12.36h-8.52Zm28.92,8.75c3.86-1.91,6.28-5.18,7.67-10.38a35.15,35.15,0,0,0-.2-14c-1.37-4.85-4-8.27-7.89-10.17-1.64-.8-2.15-.88-5.57-.88s-4,.08-5.59.84a15,15,0,0,0-6.79,7.19c-1.68,3.51-2.13,5.75-2.11,10.47,0,6.13,1.47,10.65,4.54,14,2.87,3.19,5.65,4.32,10.31,4.19,2.89-.08,3.36-.19,5.63-1.31Zm-295.9,9.26c-13-1.24-21.95-11.27-24.32-27.28a75.13,75.13,0,0,1,0-17.09c1.32-9.17,4-15.1,9.17-20.34a18.1,18.1,0,0,1,6.06-4.5c4.68-2.3,6.44-2.67,12.61-2.66,5.06,0,5.36,0,8.34,1.08a23.19,23.19,0,0,1,9.31,5.6q10,9.6,10,29c0,9.35-1.46,16.13-4.91,22.76-5,9.56-14.74,14.57-26.25,13.46Zm7.08-12.06c3.44-1.15,6.52-5.35,8-10.95,2-7.5,1.92-19.69-.19-26.79-1.34-4.52-4.32-8.46-7.43-9.83a11.35,11.35,0,0,0-8.79.11c-4.25,2.09-7.05,6.91-8.26,14.19-1.62,9.77-.53,21,2.61,27s8.08,8.25,14,6.25Zm159.84,11.4a21.65,21.65,0,0,1-8.35-2.34,19.88,19.88,0,0,1-8.57-8.29c-4.17-8-4.54-19.74-.88-28a21,21,0,0,1,13.79-12.06c2.69-.77,3.31-.83,7.24-.67,6.49.25,10.36,1.87,14.25,6,4.37,4.59,6.59,11.15,6.59,19.39v2.38l-17.93.09-17.93.08.08,2.13A14.82,14.82,0,0,0,416.48,925a13.29,13.29,0,0,0,7.56,3.59c5.92.91,12.06-1.73,14.18-6.1l.7-1.45H447l-.5,1.72a15.38,15.38,0,0,1-4.23,7,20.65,20.65,0,0,1-12.32,5.9c-1.14.1-2.51.24-3,.3a22.3,22.3,0,0,1-3.28-.15Zm15.28-31.59a15.68,15.68,0,0,0-4.57-9.71,13.75,13.75,0,0,0-10.56-2.93c-5.93,1-10.39,5.47-11.58,11.72a8.8,8.8,0,0,0-.26,2.54c.1.1,6.23.15,13.63.1l13.46-.09Zm32.26,31.57c-8.69-.91-14.73-5.58-16.39-12.69l-.47-2h8.31l.56,1.58c1.31,3.7,3.86,5.64,8.3,6.34,8,1.25,14.28-2.27,13.82-7.72-.32-4-2.31-5.24-12-7.71-9.1-2.32-11.83-3.55-14.65-6.63-3.37-3.67-3.8-10.49-1-15,3.09-4.89,9-7.56,16.65-7.56,6.13,0,10.26,1.52,13.91,5.13a13.93,13.93,0,0,1,4.2,7.89l.22,1.72H484.8l-.42-1.49c-.92-3.3-3.75-5.63-7.76-6.38-7.05-1.33-13.51,2.76-12.72,8,.29,2,2.15,4.05,4.47,5,.91.39,4.75,1.52,8.53,2.5,7.79,2,11,3.34,13.33,5.53,2.64,2.47,3.86,6.43,3.28,10.67-1.14,8.34-10.93,13.91-22.34,12.73Zm125.32,0c-9.8-1-16.61-6.86-19.48-16.84-.66-2.33-.75-3.33-.75-8.85s.09-6.52.75-8.84c3.14-10.93,10.9-16.87,22-16.87,9.22,0,16.44,4.25,20.09,11.82A26.73,26.73,0,0,1,622,906.74a38.76,38.76,0,0,1-.86,12.15c-1.62,6.38-6,12-11.29,14.57a25.35,25.35,0,0,1-13.33,2.32Zm8.49-8.39a12.88,12.88,0,0,0,6.26-5.92c1.89-3.61,2.33-5.77,2.33-11.38s-.44-7.77-2.34-11.4a13.82,13.82,0,0,0-6.62-6.17,16.15,16.15,0,0,0-4.62-.85c-5.11-.28-9,1.35-11.72,4.94s-3.79,7.09-3.79,13.48c0,6.87,1.35,11,4.72,14.55,2.79,2.91,5.66,4,10.31,3.86,2.89-.07,3.54-.21,5.47-1.11Zm42.24,8.39c-9.35-1.23-16.08-8.38-17.94-19.07-.74-4.25-.47-12.5.51-16a23.34,23.34,0,0,1,6.07-10.66c4-4.07,8.1-5.72,14-5.72,6.6,0,11.41,2.49,15.53,8l.72,1,0-13.84,0-13.84h8.18v69.44h-7.84l-.09-4.34-.09-4.34-1,1.47a18.35,18.35,0,0,1-18.08,7.84Zm10-8.3a15.34,15.34,0,0,0,6.44-6.33c1.68-3.32,2.3-6.37,2.27-11.22,0-3.71-.15-4.86-.82-7.1-1.46-4.86-4.31-8.45-8.12-10.21a15,15,0,0,0-9.73-.42c-6.35,2-9.95,8.32-10,17.73,0,4.43.31,6.53,1.63,9.82,2.41,6,6.78,8.94,13.19,8.74a10.84,10.84,0,0,0,5.15-1Zm46.9,8.3c-5.78-.65-9.71-2.47-13.46-6.23a16.67,16.67,0,0,1-4-5.58,25.65,25.65,0,0,1-2.8-10.44,32.52,32.52,0,0,1,2.62-16.89c3.83-7.95,10.83-12.27,19.89-12.25,5.79,0,10.14,1.33,14,4.27a20.3,20.3,0,0,1,6.49,9.71c1,3.12,1,3-3.46,3-3.46,0-4-.07-4.13-.57-1.45-4.27-4.29-7.39-7.76-8.53-3.93-1.29-9-.83-12,1.1s-5.55,5.7-6.73,10c-.92,3.33-.83,10.46.17,14a15.44,15.44,0,0,0,7.87,10c2,1,2.37,1,5.92,1,4.43,0,6.54-.67,8.93-2.77a16.15,16.15,0,0,0,3.66-6c.14-.5.64-.57,4.27-.57h4.11l-.19.9a19.1,19.1,0,0,1-5.95,10.57c-4.31,3.9-11.13,5.94-17.48,5.21Zm43.48-.06c-9.12-.94-14.63-7.81-13.57-16.94.64-5.49,4.88-9.7,11.55-11.46,2-.51,4.8-.81,11.3-1.19,4.78-.28,8.89-.57,9.14-.65.71-.24.31-6.47-.54-8.36-1.56-3.48-4.51-5.22-9.25-5.46-6.27-.31-10.6,2-12.14,6.4l-.37,1.06h-8.09l.19-1.23a15.72,15.72,0,0,1,5.42-9.2,23.35,23.35,0,0,1,8.37-3.85c3.1-.69,10.4-.49,13.17.37,4.55,1.4,8.24,4.24,10,7.67s1.8,4.54,1.8,24.17v18.1h-7.86v-4.34c0-4.88.22-4.73-2.27-1.37a17.72,17.72,0,0,1-8.28,5.49,18.08,18.08,0,0,1-8.55.79Zm8.4-7.28a13.54,13.54,0,0,0,9.15-7.3c.82-1.74,1-2.59,1.15-5.44a11.67,11.67,0,0,0-.12-3.54c-.45-.25-14.16.67-16.23,1.08a11.63,11.63,0,0,0-6.23,3.26,8.24,8.24,0,0,0-1.27,6.47,9,9,0,0,0,3.76,4.56A14.73,14.73,0,0,0,756,928.44Zm44.28,7.35a21.29,21.29,0,0,1-10.35-3.68c-3.55-2.55-5.26-5.29-6.33-10.15l-.2-.9h8.39l.38,1.44c1.22,4.54,6.36,7.16,13.09,6.65,4.65-.34,8.64-3.08,9.12-6.25a5.51,5.51,0,0,0-1.32-5c-1.5-1.75-3.33-2.49-10.86-4.39-8.66-2.17-11.37-3.35-14-6.1-3.48-3.57-4.29-9.34-2-14.32,1.72-3.75,6.5-7.14,11.58-8.21a33.78,33.78,0,0,1,11.22,0c6.13,1.44,10.9,5.75,12.29,11.11.86,3.31,1.06,3.12-3.41,3.12h-3.92l-.33-1.23c-1-3.56-3.82-5.95-8-6.65-8.65-1.45-15.51,4.77-11.55,10.49,1.37,2,3.78,3,11.72,5a85.6,85.6,0,0,1,9.17,2.78c5.77,2.66,8,6.17,7.71,12.16a11.88,11.88,0,0,1-3.7,8.49,19.47,19.47,0,0,1-11.8,5.41,23.92,23.92,0,0,1-6.87.17Zm44.05-.53c-4.39-.66-7.16-2.65-8.55-6.17l-.78-2-.1-17.6-.1-17.61h-7.5V885h7.53V872.92H843V885h9.83v6.87H843l.09,16.3c.11,18.07,0,17.52,2.3,19.13.91.65,1.55.78,4.26.88l3.2.11v6.73l-1.52.21a38,38,0,0,1-7,0Zm-525-34.83V865.71h8.19v69.44h-8.19Zm20.31,9.66V885h8.52v50.11h-8.52Zm20.63-9.66V865.71h8.19v41.76l11.22-11.22L390.88,885h9.82l-10.78,10.78c-8.25,8.26-10.71,10.89-10.44,11.22l20.37,25.9,1.73,2.21h-9.72l-9.29-11.64-9.29-11.65-.86.75c-.48.41-1.57,1.41-2.42,2.22l-1.56,1.47v18.86h-8.19V900.43Zm-17.53-24.55a5,5,0,0,1-3.37-2.6,5,5,0,0,1,4.53-7.57,4.72,4.72,0,0,1,4.5,2.63,4.61,4.61,0,0,1,.06,4.79,5.11,5.11,0,0,1-5.72,2.75Z"/><path id="comment" class="cls-1" d="M506.85,704.49c0-35.29,20-64,49.66-74.23a72.91,72.91,0,0,1,89.26,36.45c11.07,22.12,10.92,44.43.63,66.87-1,2.16-.82,5.27-.19,7.69,2.06,7.87,4.45,15.67,7,23.41,1.1,3.39,1.11,6.74-1.83,8.52a11.07,11.07,0,0,1-7.81.78c-8.33-2.22-16.41-5.5-24.82-7.33-3.11-.68-7,1.13-10.27,2.53-35.33,15.22-75-.95-92.2-32.68C510.16,725.28,507.14,713.39,506.85,704.49Zm9.56-3.83c-.3,9.39,2.09,18.43,6.13,27.18a64.12,64.12,0,0,0,89,29.67c2.24-1.2,5.65-1.13,8.26-.55,5.82,1.31,11.45,3.43,17.22,5,1.39.37,3.84.34,4.36-.45.71-1.07.3-3.15-.13-4.64-1.63-5.57-3.85-11-5.07-16.66a14.76,14.76,0,0,1,.86-9c8.88-18,10.19-36.1,2.69-54.92-11.62-29.13-45.13-47.39-77.15-37.76C536.67,646.26,515.81,672.32,516.41,700.66Z"/><path id="heart" class="cls-1" d="M387.27,676.7c.21,14.58-5.22,26.63-14.73,35.72-19.22,18.38-39.5,35.65-59.39,53.32-3.5,3.12-7.26,3-10.81,0-13.12-11.28-26.51-22.27-39.2-34-9.24-8.54-18.53-17.34-26.06-27.34-17.24-22.87-8.54-57.89,17.21-70.6,17.15-8.46,35.69-5.37,49.73,9.35,3.21,3.36,4.62,3,7.61-.13,20.59-21.87,55.62-16.64,69.39,10.14C385,660.77,387.49,668.76,387.27,676.7Zm-79.58-11c-2-3.21-3.33-5.45-4.71-7.69-6-9.68-13.4-17.39-25.45-18.89-22-2.75-37.57,15.67-39.43,33.75a38.92,38.92,0,0,0,12,33.1c17.85,17.17,36.65,33.34,55,50,2.12,1.93,3.65,1.4,5.56-.28,5.62-5,11.49-9.61,17-14.63,12.57-11.39,25.65-22.31,37.34-34.55,15-15.69,16.57-34.81,5.93-51.59-13.17-20.76-41.23-21.56-55.18-1.54C313.21,657.16,310.77,661.05,307.69,665.74Z"/></svg>