<svg xmlns="http://www.w3.org/2000/svg" viewBox="0 0 46.05 40.23"><title>heart</title><g id="Layer_2" data-name="Layer 2"><g id="Layer_1-2" data-name="Layer 1"><path d="M23,4.88c7.41-6,13.61-6.38,18.85-1.07,5.53,5.62,5.7,14-.3,20.34a182,182,0,0,1-16,14.48C25,39.06,24,40.21,23,40.23s-2-1.06-2.46-1.48C14.8,33.92,8.89,29.11,3.91,23.52-3.35,15.36,0,3.28,9.78.47,15-1,19.16,1.2,23,4.88Zm0,5.25c-.87-1.19-1.6-2.23-2.38-3.23C15.77.69,7.2,1.63,3.88,8.81,1.55,13.87,2.61,18.6,6.4,22.38c5.21,5.18,10.78,10,16.57,15.31,5.82-5.35,11.44-10.32,16.8-15.56a13.62,13.62,0,0,0,3-5.51A11.16,11.16,0,0,0,37.18,3.73c-4.56-2.22-8.85-.9-12.32,3.82C24.28,8.33,23.73,9.13,23,10.13Z"/></g></g></svg>